<svg width="681" height="342" viewBox="0 0 681 342" fill="none" xmlns="http://www.w3.org/2000/svg">
<g opacity="0.56">
<path d="M652.051 176.695C652.051 169.419 657.949 163.521 665.225 163.521H679.979L679.979 191.449H652.051L652.051 176.695Z" stroke="#007DB7" stroke-width="1.65284"/>
<path opacity="0.3" d="M502.529 191.449C495.254 191.449 489.356 185.551 489.356 178.275L489.356 163.521L517.284 163.521L517.284 191.449L502.529 191.449Z" stroke="#007DB7" stroke-width="1.65284"/>
<path d="M554.434 14C554.434 6.72442 560.332 0.82642 567.607 0.82642L582.362 0.82642L582.362 28.7544L554.434 28.7544L554.434 14Z" stroke="#007DB7" stroke-width="1.65284"/>
<path d="M666.805 65.9043C674.081 65.9043 679.979 71.8023 679.979 79.0779L679.979 93.8323L652.051 93.8323L652.051 65.9043L666.805 65.9043Z" stroke="#007DB7" stroke-width="1.65284"/>
<path d="M391.74 176.695C391.74 169.419 397.638 163.521 404.913 163.521L419.668 163.521L419.668 191.449L391.74 191.449L391.74 176.695Z" stroke="#007DB7" stroke-width="1.65284"/>
<path d="M243.799 130.982C251.075 130.982 256.973 136.88 256.973 144.156L256.973 158.91L229.045 158.91L229.045 130.982L243.799 130.982Z" stroke="#007DB7" stroke-width="1.65284"/>
<path d="M601.727 130.982C609.003 130.982 614.901 136.88 614.901 144.156L614.901 158.91L586.973 158.91L586.973 130.982L601.727 130.982Z" stroke="#007DB7" stroke-width="1.65284"/>
<path d="M372.374 158.91C365.098 158.91 359.2 153.012 359.2 145.737L359.2 130.982L387.128 130.982L387.128 158.91L372.374 158.91Z" stroke="#007DB7" stroke-width="1.65284"/>
<path opacity="0.3" d="M456.818 241.772C456.818 234.497 462.716 228.599 469.991 228.599L484.746 228.599L484.746 256.527L456.818 256.527L456.818 241.772Z" stroke="#007DB7" stroke-width="1.65284"/>
<path opacity="0.3" d="M256.973 210.814C256.973 218.09 251.075 223.988 243.799 223.988L229.045 223.988L229.045 196.06L256.973 196.06L256.973 210.814Z" stroke="#007DB7" stroke-width="1.65284"/>
<path d="M614.901 210.814C614.901 218.09 609.003 223.988 601.727 223.988L586.973 223.988L586.973 196.06L614.901 196.06L614.901 210.814Z" stroke="#007DB7" stroke-width="1.65284"/>
<path opacity="0.3" d="M177.141 126.371C169.865 126.371 163.967 120.473 163.967 113.198L163.967 98.4433L191.895 98.4433L191.895 126.371L177.141 126.371Z" stroke="#007DB7" stroke-width="1.65284"/>
<path d="M535.069 126.371C527.793 126.371 521.895 120.473 521.895 113.198L521.895 98.4433L549.823 98.4433L549.823 126.371L535.069 126.371Z" stroke="#007DB7" stroke-width="1.65284"/>
<path opacity="0.3" d="M178.722 228.599C185.997 228.599 191.896 234.497 191.896 241.772L191.896 256.527L163.967 256.527L163.967 228.599L178.722 228.599Z" stroke="#007DB7" stroke-width="1.65284"/>
<path opacity="0.3" d="M536.649 228.599C543.925 228.599 549.823 234.497 549.823 241.772L549.823 256.527L521.895 256.527L521.895 228.599L536.649 228.599Z" stroke="#007DB7" stroke-width="1.65284"/>
<path d="M159.357 48.1198C159.357 55.3954 153.459 61.2934 146.183 61.2934L131.429 61.2934L131.429 33.3654L159.357 33.3654L159.357 48.1198Z" stroke="#007DB7" stroke-width="1.65284"/>
<path opacity="0.3" d="M517.284 48.1198C517.284 55.3954 511.386 61.2934 504.11 61.2934L489.356 61.2934L489.356 33.3654L517.284 33.3654L517.284 48.1198Z" stroke="#007DB7" stroke-width="1.65284"/>
<path opacity="0.3" d="M294.123 46.539C294.123 39.2634 300.021 33.3654 307.296 33.3654L322.051 33.3654L322.051 61.2934L294.123 61.2934L294.123 46.539Z" stroke="#007DB7" stroke-width="1.65284"/>
<path d="M652.051 46.539C652.051 39.2634 657.949 33.3654 665.225 33.3654L679.979 33.3654L679.979 61.2934L652.051 61.2934L652.051 46.539Z" stroke="#007DB7" stroke-width="1.65284"/>
<path opacity="0.3" d="M439.033 98.4433C446.308 98.4433 452.206 104.341 452.206 111.617L452.206 126.371L424.278 126.371L424.278 98.4433L439.033 98.4433Z" stroke="#007DB7" stroke-width="1.65284"/>
<path d="M614.901 113.198C614.901 120.473 609.003 126.371 601.727 126.371L586.973 126.371L586.973 98.4433L614.901 98.4433L614.901 113.198Z" stroke="#007DB7" stroke-width="1.65284"/>
<path opacity="0.3" d="M354.59 145.737C354.59 153.012 348.692 158.91 341.416 158.91L326.662 158.91L326.662 130.982L354.59 130.982L354.59 145.737Z" stroke="#007DB7" stroke-width="1.65284"/>
<path d="M81.105 228.599C88.3806 228.599 94.2786 234.497 94.2786 241.772L94.2786 256.527L66.3505 256.527L66.3505 228.599L81.105 228.599Z" stroke="#007DB7" stroke-width="1.65284"/>
<path d="M439.033 228.599C446.308 228.599 452.206 234.497 452.206 241.772L452.206 256.527L424.278 256.527L424.278 228.599L439.033 228.599Z" stroke="#007DB7" stroke-width="1.65284"/>
<path opacity="0.3" d="M307.296 256.527C300.021 256.527 294.123 250.629 294.123 243.353L294.123 228.599L322.051 228.599L322.051 256.527L307.296 256.527Z" stroke="#007DB7" stroke-width="1.65284"/>
<path d="M665.225 256.527C657.949 256.527 652.051 250.629 652.051 243.353L652.051 228.599L679.979 228.599L679.979 256.527L665.225 256.527Z" stroke="#007DB7" stroke-width="1.65284"/>
<path opacity="0.3" d="M582.363 178.275C582.363 185.551 576.465 191.449 569.189 191.449L554.435 191.449L554.435 163.521L582.363 163.521L582.363 178.275Z" stroke="#007DB7" stroke-width="1.65284"/>
<path d="M354.59 15.5809C354.59 22.8565 348.692 28.7545 341.416 28.7545L326.662 28.7545L326.662 0.826484L354.59 0.826487L354.59 15.5809Z" stroke="#007DB7" stroke-width="1.65284"/>
<path opacity="0.3" d="M209.679 93.8324C202.404 93.8324 196.506 87.9344 196.506 80.6588L196.506 65.9044L224.434 65.9044L224.434 93.8324L209.679 93.8324Z" stroke="#007DB7" stroke-width="1.65284"/>
<path d="M567.607 93.8324C560.332 93.8324 554.434 87.9344 554.434 80.6588L554.434 65.9044L582.362 65.9044L582.362 93.8324L567.607 93.8324Z" stroke="#007DB7" stroke-width="1.65284"/>
<path opacity="0.3" d="M456.818 79.0779C456.818 71.8023 462.716 65.9043 469.991 65.9043L484.746 65.9043L484.746 93.8323L456.818 93.8323L456.818 79.0779Z" stroke="#007DB7" stroke-width="1.65284"/>
<path opacity="0.3" d="M243.799 0.826417C251.075 0.826419 256.973 6.72443 256.973 14L256.973 28.7544L229.045 28.7544L229.045 0.826414L243.799 0.826417Z" stroke="#007DB7" stroke-width="1.65284"/>
<path opacity="0.3" d="M601.727 0.826463C609.003 0.826464 614.901 6.72448 614.901 14L614.901 28.7545L586.973 28.7545L586.973 0.82646L601.727 0.826463Z" stroke="#007DB7" stroke-width="1.65284"/>
<path d="M647.44 243.353C647.44 250.629 641.542 256.527 634.266 256.527L619.512 256.527L619.512 228.599L647.44 228.599L647.44 243.353Z" stroke="#007DB7" stroke-width="1.65284"/>
<path d="M502.529 158.91C495.254 158.91 489.356 153.012 489.356 145.737L489.356 130.982L517.284 130.982L517.284 158.91L502.529 158.91Z" stroke="#007DB7" stroke-width="1.65284"/>
<path d="M569.189 196.06C576.465 196.06 582.363 201.958 582.363 209.234L582.363 223.988L554.435 223.988L554.435 196.06L569.189 196.06Z" stroke="#007DB7" stroke-width="1.65284"/>
<path opacity="0.3" d="M549.823 80.6588C549.823 87.9344 543.925 93.8324 536.649 93.8324L521.895 93.8324L521.895 65.9044L549.823 65.9044L549.823 80.6588Z" stroke="#007DB7" stroke-width="1.65284"/>
<path d="M619.511 14C619.511 6.72447 625.409 0.826467 632.685 0.826467L647.439 0.826469L647.439 28.7545L619.511 28.7545L619.511 14Z" stroke="#007DB7" stroke-width="1.65284"/>
<path opacity="0.3" d="M339.835 223.988C332.559 223.988 326.661 218.09 326.661 210.814L326.661 196.06L354.589 196.06L354.589 223.988L339.835 223.988Z" stroke="#007DB7" stroke-width="1.65284"/>
<path d="M647.44 145.737C647.44 153.012 641.542 158.91 634.266 158.91L619.512 158.91L619.512 130.982L647.44 130.982L647.44 145.737Z" stroke="#007DB7" stroke-width="1.65284"/>
<path opacity="0.3" d="M339.835 93.8324C332.559 93.8324 326.661 87.9344 326.661 80.6588L326.661 65.9044L354.589 65.9044L354.589 93.8324L339.835 93.8324Z" stroke="#007DB7" stroke-width="1.65284"/>
<path opacity="0.3" d="M471.572 196.06C478.847 196.06 484.745 201.958 484.745 209.234L484.745 223.988L456.817 223.988L456.817 196.06L471.572 196.06Z" stroke="#007DB7" stroke-width="1.65284"/>
<path d="M586.973 241.772C586.973 234.497 592.871 228.599 600.146 228.599H614.901L614.901 256.527H586.973L586.973 241.772Z" stroke="#007DB7" stroke-width="1.65284"/>
<path opacity="0.3" d="M437.451 158.91C430.176 158.91 424.278 153.012 424.278 145.737L424.278 130.982L452.206 130.982L452.206 158.91L437.451 158.91Z" stroke="#007DB7" stroke-width="1.65284"/>
<path opacity="0.3" d="M567.607 256.527C560.332 256.527 554.434 250.629 554.434 243.353L554.434 228.599L582.362 228.599L582.362 256.527L567.607 256.527Z" stroke="#007DB7" stroke-width="1.65284"/>
<path d="M484.745 15.5809C484.745 22.8565 478.847 28.7545 471.572 28.7545L456.817 28.7545L456.817 0.826469L484.745 0.826471L484.745 15.5809Z" stroke="#007DB7" stroke-width="1.65284"/>
<path d="M652.051 209.234C652.051 201.958 657.949 196.06 665.225 196.06L679.979 196.06L679.979 223.988L652.051 223.988L652.051 209.234Z" stroke="#007DB7" stroke-width="1.65284"/>
<path opacity="0.3" d="M535.069 191.449C527.793 191.449 521.895 185.551 521.895 178.275L521.895 163.521L549.823 163.521L549.823 191.449L535.069 191.449Z" stroke="#007DB7" stroke-width="1.65284"/>
<path opacity="0.3" d="M554.434 46.539C554.434 39.2634 560.332 33.3654 567.607 33.3654L582.362 33.3654L582.362 61.2934L554.434 61.2934L554.434 46.539Z" stroke="#007DB7" stroke-width="1.65284"/>
<path d="M614.901 48.1198C614.901 55.3954 609.003 61.2934 601.727 61.2934L586.973 61.2934L586.973 33.3654L614.901 33.3654L614.901 48.1198Z" stroke="#007DB7" stroke-width="1.65284"/>
<path opacity="0.3" d="M46.9849 61.2934C39.7093 61.2934 33.8113 55.3954 33.8113 48.1198L33.8113 33.3654L61.7393 33.3654L61.7393 61.2934L46.9849 61.2934Z" stroke="#007DB7" stroke-width="1.65284"/>
<path d="M437.451 61.2934C430.176 61.2934 424.278 55.3954 424.278 48.1198L424.278 33.3654L452.206 33.3654L452.206 61.2934L437.451 61.2934Z" stroke="#007DB7" stroke-width="1.65284"/>
<path opacity="0.3" d="M307.296 126.371C300.021 126.371 294.123 120.473 294.123 113.198L294.123 98.4433L322.051 98.4433L322.051 126.371L307.296 126.371Z" stroke="#007DB7" stroke-width="1.65284"/>
<path d="M665.225 126.371C657.949 126.371 652.051 120.473 652.051 113.198L652.051 98.4433L679.979 98.4433L679.979 126.371L665.225 126.371Z" stroke="#007DB7" stroke-width="1.65284"/>
<path d="M634.266 163.521C641.542 163.521 647.44 169.419 647.44 176.695L647.44 191.449L619.512 191.449L619.512 163.521L634.266 163.521Z" stroke="#007DB7" stroke-width="1.65284"/>
<path opacity="0.3" d="M406.493 0.82642C413.769 0.82642 419.667 6.72443 419.667 14L419.667 28.7544L391.739 28.7544L391.739 0.826419L406.493 0.82642Z" stroke="#007DB7" stroke-width="1.65284"/>
<path opacity="0.3" d="M582.363 145.737C582.363 153.012 576.465 158.91 569.189 158.91L554.435 158.91L554.435 130.982L582.363 130.982L582.363 145.737Z" stroke="#007DB7" stroke-width="1.65284"/>
<path opacity="0.3" d="M131.428 209.234C131.428 201.958 137.326 196.06 144.602 196.06L159.356 196.06L159.356 223.988L131.428 223.988L131.428 209.234Z" stroke="#007DB7" stroke-width="1.65284"/>
<path d="M489.356 209.234C489.356 201.958 495.254 196.06 502.529 196.06L517.284 196.06L517.284 223.988L489.356 223.988L489.356 209.234Z" stroke="#007DB7" stroke-width="1.65284"/>
<path opacity="0.3" d="M536.649 0.82642C543.925 0.82642 549.823 6.72443 549.823 14L549.823 28.7544L521.895 28.7544L521.895 0.826419L536.649 0.82642Z" stroke="#007DB7" stroke-width="1.65284"/>
<path d="M619.511 79.0779C619.511 71.8023 625.409 65.9043 632.685 65.9043H647.439L647.439 93.8323H619.511L619.511 79.0779Z" stroke="#007DB7" stroke-width="1.65284"/>
<path opacity="0.3" d="M113.644 130.982C120.919 130.982 126.817 136.88 126.817 144.156L126.817 158.91L98.8891 158.91L98.8891 130.982L113.644 130.982Z" stroke="#007DB7" stroke-width="1.65284"/>
<path opacity="0.3" d="M406.493 65.9043C413.769 65.9043 419.667 71.8023 419.667 79.0779L419.667 93.8323L391.739 93.8323L391.739 65.9043L406.493 65.9043Z" stroke="#007DB7" stroke-width="1.65284"/>
<path opacity="0.3" d="M521.449 273.92C521.449 266.644 527.347 260.746 534.623 260.746L549.377 260.746L549.377 288.674L521.449 288.674L521.449 273.92Z" stroke="#007DB7" stroke-width="1.65284"/>
<path d="M633.821 325.824C641.096 325.824 646.994 331.722 646.994 338.998L646.994 353.752L619.066 353.752L619.066 325.824L633.821 325.824Z" stroke="#007DB7" stroke-width="1.65284"/>
<path opacity="0.3" d="M126.372 308.04C126.372 315.315 120.474 321.213 113.198 321.213L98.4438 321.213L98.4438 293.285L126.372 293.285L126.372 308.04Z" stroke="#007DB7" stroke-width="1.65284"/>
<path opacity="0.3" d="M484.299 308.04C484.299 315.315 478.401 321.213 471.125 321.213L456.371 321.213L456.371 293.285L484.299 293.285L484.299 308.04Z" stroke="#007DB7" stroke-width="1.65284"/>
<path d="M261.138 306.459C261.138 299.183 267.036 293.285 274.311 293.285L289.066 293.285L289.066 321.213L261.138 321.213L261.138 306.459Z" stroke="#007DB7" stroke-width="1.65284"/>
<path d="M619.066 306.459C619.066 299.183 624.964 293.285 632.239 293.285L646.994 293.285L646.994 321.213L619.066 321.213L619.066 306.459Z" stroke="#007DB7" stroke-width="1.65284"/>
<path d="M321.605 275.501C321.605 282.776 315.707 288.674 308.431 288.674L293.677 288.674L293.677 260.746L321.605 260.746L321.605 275.501Z" stroke="#007DB7" stroke-width="1.65284"/>
<path d="M176.694 353.752C169.419 353.752 163.521 347.854 163.521 340.578L163.521 325.824L191.449 325.824L191.449 353.752L176.694 353.752Z" stroke="#007DB7" stroke-width="1.65284"/>
<path d="M534.623 353.752C527.347 353.752 521.449 347.854 521.449 340.578L521.449 325.824L549.377 325.824L549.377 353.752L534.623 353.752Z" stroke="#007DB7" stroke-width="1.65284"/>
<path d="M423.833 338.998C423.833 331.722 429.731 325.824 437.006 325.824L451.761 325.824L451.761 353.752L423.833 353.752L423.833 338.998Z" stroke="#007DB7" stroke-width="1.65284"/>
<path opacity="0.3" d="M210.814 260.746C218.09 260.746 223.988 266.644 223.988 273.92L223.988 288.674L196.06 288.674L196.06 260.746L210.814 260.746Z" stroke="#007DB7" stroke-width="1.65284"/>
<path d="M568.742 260.746C576.017 260.746 581.915 266.644 581.915 273.92L581.915 288.674L553.987 288.674L553.987 260.746L568.742 260.746Z" stroke="#007DB7" stroke-width="1.65284"/>
<path d="M516.839 340.578C516.839 347.854 510.941 353.752 503.665 353.752L488.911 353.752L488.911 325.824L516.839 325.824L516.839 340.578Z" stroke="#007DB7" stroke-width="1.65284"/>
<path opacity="0.3" d="M586.527 273.92C586.527 266.644 592.425 260.746 599.7 260.746L614.455 260.746L614.455 288.674L586.527 288.674L586.527 273.92Z" stroke="#007DB7" stroke-width="1.65284"/>
<path d="M306.85 353.752C299.575 353.752 293.677 347.854 293.677 340.578L293.677 325.824L321.605 325.824L321.605 353.752L306.85 353.752Z" stroke="#007DB7" stroke-width="1.65284"/>
<path opacity="0.3" d="M438.587 260.746C445.862 260.746 451.76 266.644 451.76 273.92L451.76 288.674L423.832 288.674L423.832 260.746L438.587 260.746Z" stroke="#007DB7" stroke-width="1.65284"/>
<path d="M521.449 306.459C521.449 299.183 527.347 293.285 534.623 293.285L549.377 293.285L549.377 321.213L521.449 321.213L521.449 306.459Z" stroke="#007DB7" stroke-width="1.65284"/>
<path d="M581.915 308.04C581.915 315.315 576.017 321.213 568.742 321.213L553.987 321.213L553.987 293.285L581.915 293.285L581.915 308.04Z" stroke="#007DB7" stroke-width="1.65284"/>
<path opacity="0.3" d="M14 321.213C6.72442 321.213 0.826422 315.315 0.826424 308.04L0.826428 293.285L28.7544 293.285L28.7544 321.213L14 321.213Z" stroke="#007DB7" stroke-width="1.65284"/>
<path d="M404.467 321.213C397.191 321.213 391.293 315.315 391.293 308.04L391.293 293.285L419.221 293.285L419.221 321.213L404.467 321.213Z" stroke="#007DB7" stroke-width="1.65284"/>
<path opacity="0.3" d="M373.509 260.746C380.784 260.746 386.682 266.644 386.682 273.92L386.682 288.674L358.754 288.674L358.754 260.746L373.509 260.746Z" stroke="#007DB7" stroke-width="1.65284"/>
<path d="M503.665 260.746C510.941 260.746 516.839 266.644 516.839 273.92L516.839 288.674L488.911 288.674L488.911 260.746L503.665 260.746Z" stroke="#007DB7" stroke-width="1.65284"/>
<path d="M586.527 338.998C586.527 331.722 592.425 325.824 599.7 325.824H614.455L614.455 353.752H586.527L586.527 338.998Z" stroke="#007DB7" stroke-width="1.65284"/>
<path d="M373.509 325.824C380.784 325.824 386.682 331.722 386.682 338.998L386.682 353.752L358.754 353.752L358.754 325.824L373.509 325.824Z" stroke="#007DB7" stroke-width="1.65284"/>
</g>
</svg>
